<?xml version="1.0" encoding="UTF-8"?><svg id="Layer_2" xmlns="http://www.w3.org/2000/svg" viewBox="0 0 625.33 536.97"><g id="Layer_1-2"><path d="M33.71,.03c2.38,0,4.46,0,6.54,0C74.85,.02,109.45,.01,144.05,0c6.51,0,6.65,.16,6.61,6.95-.09,15.19-.19,30.38-.23,45.57-.02,6.33,1.41,7.97,7.63,8.37,3.3,.21,6.64-.16,9.96-.14,2.43,.01,4.89,.01,7.28,.39,4.68,.74,6.32,2.79,6.18,7.46-.12,4.32-.35,8.64-.54,12.95-.24,5.37,3.07,8.86,8.45,8.86,99.8-.14,199.6-.29,299.4-.41,38.7-.05,77.41,0,116.11-.02,5.84,0,11.69-.17,17.53-.39,2.28-.09,2.84,.98,2.84,2.99-.02,18.08-.01,36.15,.06,54.23,0,2.5-.95,3.26-3.39,3.12-5.75-.33-11.52-.34-17.27-.65-5.56-.3-8.09,2.19-7.62,7.7,.18,2.1,.27,4.2,.28,6.31,.05,31.83,.09,63.66,.12,95.49,0,6.68-2.24,9.01-8.89,8.98-4.1-.01-8.19-.28-12.29-.29-7.38-.01-10.14,2.61-10.15,9.98-.03,22.51,.05,45.03,.1,67.54,0,.78,.04,1.55,.04,2.33-.02,8.61-2.59,11-11.24,10.61-2.99-.13-5.99-.08-8.98-.08-95.81,0-191.63,0-287.44,0-4.31,0-8.63-.06-12.93,.17-3.75,.21-6.1,2.35-6.24,6.06-.23,5.98-.11,11.97,.03,17.96,.06,2.57,1.84,4.02,4.23,4.44,2.39,.42,4.84,.72,7.27,.72,91.05,0,182.09-.02,273.14-.06,1.99,0,3.98-.23,5.97-.28,4.07-.11,6.83,2.37,6.84,6.42,.04,14.75,.01,29.5-.06,44.25,0,1.64-.31,3.32-.76,4.91-.78,2.77-2.66,4.22-5.65,4.16-4.77-.1-9.54-.14-14.3-.18-5.85-.04-8.71,2.93-8.63,8.85,.05,4.21,.09,8.43,.05,12.64-.05,5.27,2.26,7.84,7.55,7.9,4.77,.06,9.53-.12,14.3-.18,5.51-.07,7.5,1.88,7.5,7.28,0,4.66,.05,9.32,.02,13.97-.04,6.69-2.41,9-8.96,8.87-3.44-.06-6.88-.04-10.31-.11-7.2-.16-10.05,2.66-10.03,9.95,.01,4.53,.19,9.07-.06,13.58-.13,2.37-1.01,4.7-1.64,7.4h-86.66c-.31-7.1-.74-13.99-.88-20.89-.21-11.08-.19-22.17-.34-33.26-.04-3.06,1.29-5.29,4.08-6.17,2.15-.68,4.55-.75,6.84-.77,4.43-.04,8.86,.28,13.29,.19,3.8-.07,5.86-2.38,5.89-6.19,.04-5.09,.09-10.19,.04-15.28-.06-5.41-2.4-7.73-7.69-7.73-44.14,0-88.27,0-132.41,.02-6.79,0-8.86,2.24-8.83,8.99,.1,23.07,.19,46.14,.12,69.2-.01,3.82-.87,7.64-1.38,11.86-1.49,.12-2.87,.32-4.25,.32-25.95,.02-51.9-.01-77.85,.08-2.92,.01-4.49-.53-4.55-3.87-.07-3.74-.98-7.47-1-11.21-.1-19.63-.05-39.26,0-58.89,0-2.99,.34-5.98,.3-8.97-.07-5.38-2.43-7.64-7.77-7.53-4.32,.09-8.63,.26-12.94,.49-4.84,.26-7.63-1.82-8.37-6.53-.29-1.85-.55-3.74-.55-5.61-.02-20.3,0-40.59,.05-60.89,0-1.88,.08-3.77,.27-5.64,.72-6.98-2.51-10.77-9.63-10.86-4.09-.05-8.19,.47-12.28,.41-6.67-.1-8.64-2.07-9-8.78-.16-2.98,0-5.99,0-8.98,.02-31.61,.04-63.22,.06-94.82,0-5.4-2.12-7.44-7.52-7.19-4.65,.22-9.3,.47-13.95,.63-4.74,.16-6.77-1.74-6.76-6.5,.05-34.16,.15-68.31,.22-102.47,0-1.22,.05-2.45-.12-3.65-.62-4.38-2.46-5.94-6.9-5.79-4.65,.15-9.29,.4-13.94,.6-4.64,.2-7.69-2.14-8.33-6.71-.33-2.39-.29-4.84-.32-7.27-.03-2.44,.23-4.89,.07-7.31-.5-7.66-2.95-9.81-10.66-9.75-21.4,.16-42.79,.3-64.19,.41-2.99,.02-6,0-8.96-.33-2.51-.27-5.09-.72-7.38-1.7-.93-.39-1.65-2.39-1.66-3.66C-.04,71.41,0,58.22,.02,45.02c0-3.11,.09-6.21,.03-9.31-.03-1.82,.48-2.89,2.53-3.09,5.46-.54,10.91-1.26,16.37-1.82,1.53-.16,3.1,.05,4.65-.04,7.42-.44,9.68-2.95,9.46-10.49-.09-3.32-.43-6.65-.34-9.96,.09-3.17,.6-6.34,1-10.26ZM387.61,178.67h.2c0,8.09-.1,16.18,.04,24.26,.07,4.03,1.99,6.35,5.28,6.47,5.74,.2,11.51,.34,17.24,.06,5.25-.26,7.13-2.1,7.59-7.36,.44-5.06,.24-10.17,.42-15.26,.25-7.12,3.56-9.7,10.74-9,4.06,.4,8.19,.42,12.26,.15,4.7-.3,6.49-2.51,6.46-7.12-.03-4.32-.08-8.64-.16-12.96-.1-5.59-1.8-7.49-7.31-7.6-15.39-.3-30.77-.51-46.16-.68-4.64-.05-6.59,2.05-6.6,6.76-.01,7.42,0,14.85,0,22.27Zm-148.25-.42h.11c0-7.21-.01-14.41,0-21.62,.01-5-2.62-7.48-7.69-7.28-3.76,.15-7.53,.34-11.3,.32-10.42-.06-20.84-.22-31.25-.35-4.95-.06-8.22,2.55-8.25,6.66-.04,4.87-.05,9.73-.04,14.6,.02,5.43,3.28,8.6,8.77,8.54,4.21-.05,8.43-.13,12.64-.2,5.97-.1,7.32,.83,7.83,6.86,.48,5.72,.18,11.5,.57,17.23,.37,5.51,2.57,6.95,8.16,6.44,3.29-.3,6.66-.41,9.94-.08,7.81,.8,10.19-.93,10.45-8.85,.24-7.42,.05-14.86,.05-22.29Zm59.95-.48h.08c0,2.22-.04,4.44,0,6.65,.14,6.53,.2,13.07,.52,19.59,.15,3.02,1.92,4.92,5.12,5.05,5.2,.2,10.41,.45,15.61,.47,5.6,.03,8.14-2.27,8.8-7.71,.24-1.97,.35-3.97,.35-5.96,.03-12.31-.02-24.62,.03-36.92,.03-7.14-2.04-9.37-9.16-9.39-4.88-.01-9.76,.06-14.63,.16-4.73,.1-6.74,2.26-6.73,7.1,0,6.99,0,13.97,0,20.96Zm237.58,.86h.02c0-7.54,.03-15.08-.01-22.62-.02-3.96-1.99-6.24-5.71-6.35-5.54-.16-11.09-.21-16.63-.05-4.71,.14-7,2.74-6.99,7.44,.02,10.64,0,21.29,.09,31.93,.04,4.65,.06,9.31,.49,13.93,.45,4.75,3.08,6.71,7.84,6.63,4.64-.08,9.29-.09,13.93-.07,3.76,.02,5.8-1.49,6.46-5.27,.38-2.17,.47-4.41,.49-6.62,.06-6.32,.02-12.64,.02-18.96Zm-45.72,119.32l.02,.46c3.85-.28,7.77-.2,11.51-.99,1.71-.36,4.31-2.34,4.38-3.69,.35-7.02,.19-14.09-.19-21.12-.14-2.66-2.28-4.33-5.05-4.42-6.06-.19-12.13-.43-18.18-.2-4.79,.18-6.29,1.39-6.62,6.12-.45,6.46-.22,13,.06,19.48,.12,2.82,2.47,4.14,5.11,4.31,2.97,.19,5.96,.04,8.95,.04Zm-89.17,.28h0c1.44-.01,2.88-.01,4.31-.01,1.55,0,3.11,.14,4.64-.02,4.74-.47,6.85-2.38,7.15-7.04,.32-4.96,.45-9.96,.23-14.92-.27-6.05-3.59-8.85-9.75-8.82-4.42,.02-8.85,.11-13.27,.1-4.96-.02-7.05,1.4-7.36,6.43-.39,6.38-.25,12.81-.04,19.21,.1,3.21,2.25,4.95,5.47,5.05,2.87,.08,5.75,.02,8.63,.02Zm-88.51-.14v.12c2.98,0,5.99,.23,8.94-.06,3.04-.3,6.41-1.23,6.71-4.8,.51-6.03,.72-12.15,.29-18.18-.38-5.4-3.52-7.72-8.9-7.72-4.64,0-9.29,.08-13.93,.18-4.08,.09-6.3,1.47-6.59,5.49-.48,6.8-.4,13.66-.14,20.48,.11,2.86,2.42,4.37,5.32,4.46,2.76,.09,5.53,.02,8.29,.02Zm-74.22-13.71l.42-.02c-.32-3.96-.36-7.97-1.06-11.86-.68-3.75-3.65-5.48-7.3-5.31-4.42,.2-8.85,.29-13.27,.22-4.72-.08-6.88,1.18-7.17,5.83-.41,6.72-.3,13.48-.09,20.22,.1,3.26,2.82,5.07,6.28,5.04,4.86-.04,9.72-.04,14.58,.1,4.29,.12,7.31-2.31,7.57-6.57,.16-2.54,.03-5.09,.03-7.64Z"/></g></svg>