<?xml version="1.0" encoding="UTF-8"?><svg id="Layer_2" xmlns="http://www.w3.org/2000/svg" viewBox="0 0 891.04 887.17"><g id="Layer_1-2"><path d="M579.48,530.48c-1.64,.48-2.66,.77-2.29,.67,.82-7.21,2.29-14.66,2.41-22.13,.35-20.83,.15-41.67,.13-62.51,0-1.62-.21-3.23-.34-4.95-5.24,0-10.07,.38-14.82-.07-18.02-1.69-31.95-10.9-42.93-24.72-13.85-17.44-20.12-38.04-23.89-59.61-5.21-29.9-1.5-59.36,3.36-88.91,4.65-28.25,8.43-56.64,12.13-85.03,.83-6.34,.31-13.01-.58-19.39-1.39-10-9.48-13.69-17.45-7.48-5.06,3.94-9.92,9.41-12.32,15.25-6.42,15.65-11.63,31.81-17,47.87-7.71,23.07-8.12,47.09-8.95,71.08-1.51,43.97-3.31,87.94-4.95,131.91-.15,3.94-.02,7.9-.02,12.51,7.82-4.54,13.4-10.74,16.89-18.22,3.69-7.91,6.13-16.42,8.81-24.76,.84-2.62,.9-5.64,4.63-5.15,3.72,.48,3.01,3.55,2.58,5.9-5.91,31.82-23.9,52.96-57.04,58.32-3.59,.58-7.12,1.61-10.73,2.04-1.43,.17-2.97-1.06-4.48-1.13-32.86-1.54-62.91-13.63-93.13-24.92-24.61-9.19-48.88-19.3-73.54-28.34-25.34-9.28-51.18-16.94-78.12-20.27-38.49-4.76-75.13-.91-107.7,22.64-12.96,9.37-24.6,19.86-31.95,34.39-15.34,30.32-6.06,60.83,23.64,77.24,13.42,7.41,27.87,11.72,43.1,13.42,1.49,.17,2.97,.42,4.47,.53,2.68,.2,5.4,.75,5.12,4.07-.32,3.83-3.54,3.48-6.17,3.03-10.98-1.86-22.1-3.25-32.87-5.99-14.72-3.74-28.86-9.34-41.23-18.43-20.62-15.16-28.6-39.43-22.02-65.26,6.7-26.27,23.16-45.15,44.89-60.21,17.84-12.37,37.08-18.52,59.21-19.28,52.34-1.8,101.71,10.31,150.21,28.01,6.24,2.28,12.43,4.67,18.8,7.07,11.27-57.15,29.56-111.76,52.59-164.87,1.49-3.43,1.9-7.37,2.56-11.11,2.96-16.74,10.63-31.04,22.07-43.47,1.67-1.81,3.18-3.86,4.32-6.04,17.18-32.73,34.96-65.1,56.6-95.17,7.76-10.78,16.04-21.19,24.66-32.54-3.47-1.82-6.96-3.97-10.69-5.55-19.71-8.32-40.27-13.83-61.22-17.85-35.12-6.75-70.49-10.41-106.35-8.16-33,2.07-65.39,6.92-94.73,23.25-41.54,23.12-67.68,57.94-75.52,105.18-5.89,35.51,14.79,62.12,50.77,66.47,9.54,1.15,19.27,.74,28.92,1.09,3.03,.11,4.65-.87,5.59-4.18,7.19-25.24,20.75-47.04,37.23-67.14,12.3-14.99,26.13-28.38,42.65-38.74,7.39-4.64,15.23-8.16,24.1-8.99,11.98-1.12,20.65,4.3,26.81,13.96,10.39,16.28,9.17,34.87-3.11,51.3-10.69,14.3-24.89,24.41-40.34,32.83-24.66,13.43-51.1,21.67-78.78,25.94-3.07,.47-4.54,1.54-4.52,4.6,.02,3.33-.31,6.7,.08,9.98,1.56,13.02,9.9,20.49,24.04,21.42,5.14,.34,10.34-.22,15.48,.07,1.61,.09,3.13,1.64,4.69,2.52-1.35,1.39-2.59,3.85-4.07,4-10.32,1.05-20.68,1.21-30.52-2.85-11.33-4.67-16.02-13.93-16.87-25.54-.29-3.94-.05-7.92-.05-12.35-3.41,.24-6.52,.44-9.62,.68-19.31,1.55-38.18-.28-56.69-6.34-28.12-9.21-39.9-28.57-38.79-59.61,1.21-33.93,14.76-64.14,36.64-89.95C132.41,28.16,170.93,9.39,214.63,3.52c53.08-7.14,106.01-3.17,158.23,9.71,34.86,8.6,68.39,20.68,101.29,34.9,18.32,7.92,37.07,14.94,56.91,18.22,14.32,2.37,28.67,3.87,43.25,1.74,20-2.93,34.41-13.24,43.47-31.22,.67-1.34,1.11-3.06,2.21-3.84,1.14-.81,3.1-1.22,4.38-.81,.76,.25,1.65,2.75,1.22,3.66-7.43,15.91-15.93,30.87-34.06,37.04-24.02,8.17-47.95,6.14-71.78-.62-15.2-4.31-30.26-9.09-45.38-13.67-.48-.14-.94-.33-1.41-.5-8.16-2.9-14.37-1.6-20.41,5.75-17.49,21.26-33.05,43.79-47.09,67.41-5.32,8.95-10.42,18.03-15.82,27.38,37.06-3.22,49.26,5.38,64.89,45.57,2.5-8.31,4.76-16.27,7.3-24.15,5.54-17.16,11.98-34.03,22.3-48.9,5.64-8.13,12.53-15.52,19.63-22.45,5.9-5.75,13.73-8.05,22.11-7.49,12.77,.86,20.92,7.75,24.96,19.67,4.82,14.21,4.49,28.88,3.46,43.54-.68,9.75-1.81,19.47-2.78,29.54,10.43-4.11,20.5-7.93,30.39-12.17,1.09-.47,1.65-3.28,1.66-5.01,.1-25.5,.15-51.01-.02-76.51-.02-3.69,1.06-6.1,3.89-8.47,19.53-16.39,38.74-33.17,58.39-49.42,36.49-30.17,90.01-16.31,107.93,28.11-19.67,15.12-39.44,30.32-59.21,45.52l-.79-.5c.67-1.32,1.3-2.67,2.03-3.96,8.71-15.41,8.1-29.95-3.24-44.06-11.14-13.86-24.98-20.41-42.57-16.31-4.35,1.01-8.7,4.31-11.87,7.67-6.73,7.14-10.09,16.23-10.2,25.96-.3,27.67-.13,55.34-.13,83.01,0,.65,.19,1.29,.33,2.23,10.23-1.92,20.29-4.08,30.44-5.64,18.64-2.88,37.35-5.22,56.16-1.56,4.05,.79,7.92,2.48,11.93,3.5,2.17,.55,4.47,.57,6.96,.86-2.09,8.47-4.59,17.75-6.65,27.13-5.08,23.11-2.61,46.06,1.81,68.94,7.11,36.72,16.84,72.62,33.21,106.44,10.38,21.44,23,41.43,40.5,57.78,5.46,5.1,12.17,9.49,19.08,12.29,14.26,5.78,27.87,1.57,37.65-10.26,9.89-11.95,13.46-26.23,14.58-41.24,2.18-29.15-3.01-57.46-10.98-85.29-10.8-37.71-24.2-74.4-45.15-107.87-7.81-12.48-16.78-24.07-28.35-33.38-17.36-13.96-31.64-11.1-42.51,8.42-7.96,14.3-9.12,29.85-7.77,45.62,1.86,21.89,6.56,43.29,17.16,62.67,5.36,9.8,12.7,18.64,19.96,27.23,3.17,3.76,8.07,6.58,12.73,8.46,10,4.02,19.28,2.22,27.02-5.7,7.91-8.09,12.15-17.93,12.87-29.08,1.35-20.8-3.48-40.4-13.24-58.68-5.54-10.37-13.18-18.8-25.19-22.12-8.67-2.4-14.34,.03-17.52,8.41-1.28,3.36-1.83,7.07-2.22,10.68-.37,3.44-.08,6.95-1.06,11.5-1-.95-2.93-2.01-2.84-2.85,.78-7.4,1.07-15.01,3.17-22.07,2.62-8.83,9.97-12.84,18.81-10.41,6.25,1.72,13.21,4.06,17.74,8.36,25.53,24.21,33.07,54.24,25.29,88.04-1.54,6.67-5.79,13.13-10.09,18.66-9.79,12.58-23,15.09-37.5,8.2-9.49-4.5-16.28-12.05-22.35-20.28-13.98-18.94-20.9-40.73-24.91-63.58-3.02-17.2-3.96-34.42,.92-51.51,.23-.8,.48-1.59,.74-2.38,9.43-27.86,30.53-38.92,58.83-31.02,17.69,4.94,31.12,15.64,41.41,30.43,34.91,50.21,54.85,105.15,52.07,167.11-1.03,22.83-4.81,45.1-15.93,65.42-3.65,6.67-7.96,13.16-12.92,18.91-20.66,23.94-47.64,29.77-76.69,17-18.96-8.33-32.83-22.5-44.26-39.29-16.18-23.78-25.34-50.5-31.65-78.24-8.36-36.77-10.42-73.85-3.46-111.11,1.52-8.12,4.21-16.01,6.57-24.8-4.67,5.29-8.94,10.14-13.28,15.05-.48-.53-.84-.74-.89-1-3.03-18.29-11.55-26.76-30.26-29.82-13.3-2.18-26.52-1.2-40.3,1.3v5.42c0,43.34-.51,86.69,.34,130.01,.22,11.37-.85,22.71,0,34.05,.11,1.48,.6,3.61,1.63,4.23,13.82,8.17,16.26,25.41,10.57,40.52-2.38,6.31-6.41,11.98-9.51,18.04-1.01,1.97-2.29,4.38-2,6.37,5.26,35.51,2.44,71.23,2.92,106.86,.72,54.33,1.2,108.67,1.82,163,.09,7.97,2.85,11.43,10.81,11.08,11.1-.48,22.16-2.15,33.22-3.37,3.14-.35,6.26-.93,9.39-1.37,4.3-.6,6.38,1.44,4.98,5.35-2.79,7.81-5.95,15.5-8.91,23.25-2.82,7.37-5.52,14.79-8.4,22.14-2.53,6.45-5.31,12.8-7.84,19.25-1.51,3.86-2.57,7.91-4.16,11.74-3.1,7.45-6.6,14.74-9.61,22.23-3.21,7.99-5.91,16.18-9.11,24.18-3.37,8.42-7.2,16.66-10.61,25.07-2.78,6.86-5.22,13.86-7.81,20.8-2.04,5.44-3.86,10.99-6.21,16.29-1.59,3.58-4.26,3.44-6.22,.02-5.66-9.91-11.46-19.75-16.88-29.79-5.09-9.43-9.67-19.14-14.69-28.62-2.7-5.09-6.01-9.85-8.77-14.92-5.35-9.83-10.33-19.87-15.77-29.65-5.38-9.68-11.22-19.1-16.72-28.72-2.63-4.6-4.83-9.44-7.4-14.07-1.58-2.84-3.32-5.64-5.3-8.2-2.63-3.4-2.34-6.88,1.77-8.54,4.87-1.97,10.04-3.39,15.21-4.39,5.86-1.14,11.9-1.35,17.79-2.4,2.16-.39,4.68-1.54,6.03-3.17,6.8-8.2,12.29-17.46,12.41-28.26,.36-33.32,.1-66.65-.05-99.97-.08-16.33-.46-32.66-.73-48.99-.02-1.3-.26-2.59-.44-4.38Zm-242.81-260.51c-17.93,45.05-31.71,90.53-40.55,137.68,38.95,14.74,77.27,29.4,119.05,33.6,.2-3.82,.39-6.96,.51-10.11,1.93-47.96,4.02-95.9,5.69-143.87,.78-22.29,2.79-44.63-.57-66.88-1.9-12.58-4.63-24.93-12.46-35.42-4.99-6.69-11.59-10.42-20.16-9.94-4.92,.27-8.6,1.92-10.95,6.97-6.47,13.88-13.58,27.46-20.15,41.3-.92,1.94-.99,4.98-.14,6.93,3.84,8.78,11.77,10.32,18.93,3.92,2.6-2.33,4.82-5.12,7.56-7.25,5.45-4.24,11.7-3.33,15.68,2.3,1.6,2.26,2.85,4.92,3.64,7.59,5.13,17.42-2.65,36.17-18.48,44.21-15.15,7.69-32.27,9.85-47.59-11.01Zm210.23-48.32c-2.23,14.42-4.6,28.83-6.65,43.28-4.78,33.6-6.94,67.28-2.46,101.1,1.93,14.59,4.83,28.94,13.06,41.55,5.06,7.75,11.59,13.8,20.85,16.08,7.83,1.93,9.8,.72,9.98-7.31,.76-33.59,2.3-67.2,1.54-100.76-.79-35.07-16.04-65.46-36.32-93.94Zm-365.55-12.79c1.44,0,2.1,.09,2.73-.01,27.93-4.79,54.71-13.01,79.33-27.31,12.12-7.04,23.49-15.13,32.21-26.41,12.48-16.14,13.3-33.04,2.28-48.33-3.77-5.23-8.84-7.91-15.28-7.94-10.45-.04-19.44,4.22-27.75,9.97-24.83,17.18-43.34,40.07-58.65,65.76-6.32,10.6-11.45,21.74-14.86,34.27Zm401.95,73.41v-95.41c-9.66,3.64-18.67,6.9-27.57,10.43-6.26,2.49-9.55,14.47-5.63,20.13,13.69,19.76,26.56,39.93,33.2,64.85Z"/></g></svg>